<svg xmlns="http://www.w3.org/2000/svg" viewBox="0 0 600 800">
  <defs>
    <pattern id="weave" width="26" height="26" patternUnits="userSpaceOnUse" patternTransform="rotate(45)">
      <line x1="0" y1="0" x2="0" y2="26" stroke="#1F4A32" stroke-opacity="0.07" stroke-width="2"/>
    </pattern>
  </defs>
  <rect width="600" height="800" fill="#E8DFC9"/>
  <rect width="600" height="800" fill="url(#weave)"/>
  <rect x="20" y="20" width="560" height="760" fill="none" stroke="#8A6D1C" stroke-width="4"/>
  <rect x="32" y="32" width="536" height="736" fill="none" stroke="#8A6D1C" stroke-opacity="0.5" stroke-width="1.5"/>
  <circle cx="300" cy="340" r="200" fill="#1F4A32"/>
  <circle cx="300" cy="340" r="200" fill="none" stroke="#D4AF37" stroke-width="8"/>
  <circle cx="300" cy="340" r="182" fill="none" stroke="#D4AF37" stroke-opacity="0.5" stroke-width="2"/>
  <path d="M120 600 H480 L455 650 L480 700 H120 L145 650 Z" fill="#752300" stroke="#D4AF37" stroke-width="4" stroke-linejoin="round"/>
    <g transform="rotate(28 300 340)">
      <polygon points="300,190 320,340 280,340" fill="#FDFBF6"/>
      <rect x="262" y="340" width="76" height="14" rx="3" fill="#D4AF37"/>
      <rect x="291" y="354" width="18" height="60" rx="4" fill="#752300"/>
      <circle cx="300" cy="426" r="12" fill="#D4AF37"/>
    </g>
    <circle cx="228" cy="262" r="30" fill="none" stroke="#FDFBF6" stroke-width="10"/>
    <rect x="200" y="285" width="56" height="50" rx="6" fill="#FDFBF6"/>
    <circle cx="228" cy="310" r="7" fill="#752300"/>
</svg>
